grf
version=1
nRows=7
nColumns=37
inDegrees=no
endheader
time	ground_force_1_vx	ground_force_1_vy	ground_force_1_vz	ground_force_1_px	ground_force_1_py	ground_force_1_pz	ground_moment_1_mx	ground_moment_1_my	ground_moment_1_mz	ground_force_2_vx	ground_force_2_vy	ground_force_2_vz	ground_force_2_px	ground_force_2_py	ground_force_2_pz	ground_moment_2_mx	ground_moment_2_my	ground_moment_2_mz	ground_force_3_vx	ground_force_3_vy	ground_force_3_vz	ground_force_3_px	ground_force_3_py	ground_force_3_pz	ground_moment_3_mx	ground_moment_3_my	ground_moment_3_mz	ground_force_4_vx	ground_force_4_vy	ground_force_4_vz	ground_force_4_px	ground_force_4_py	ground_force_4_pz	ground_moment_4_mx	ground_moment_4_my	ground_moment_4_mz
      6.36000000	      0.00000000	     -0.00000000	      0.00000000	      0.00000000	      0.00000000	      0.00000000	      0.00000000	      0.00000000	      0.00000000	     14.98736572	      3.25167751	   -135.49919128	   -559.80263455	  -1060.90584471	      0.00000000	      0.00000000	      0.00000000	    561.11775576	     15.58188368	    -51.72543471	   -647.77972412	   -540.76121930	   -758.41389469	      0.00000000	      0.00000000	     -0.00000000	  -3165.56710658	      0.00000000	     -0.00000000	      0.00000000	      0.00000000	      0.00000000	      0.00000000	      0.00000000	      0.00000000	      0.00000000
      6.37000000	      0.00000000	     -0.00000000	      0.00000000	      0.00000000	      0.00000000	      0.00000000	      0.00000000	      0.00000000	      0.00000000	     17.96187592	     -0.59585422	   -107.95205688	   -563.17231007	  -1064.88915786	      0.00000000	      0.00000000	      0.00000000	    595.19063971	     16.31152292	    -49.55967474	   -623.81201172	   -543.48989804	   -759.53613924	      0.00000000	     -0.00000000	     -0.00000000	  -2699.13363424	      0.00000000	     -0.00000000	      0.00000000	      0.00000000	      0.00000000	      0.00000000	      0.00000000	      0.00000000	      0.00000000
      6.38000000	      0.00000000	     -0.00000000	      0.00000000	      0.00000000	      0.00000000	      0.00000000	      0.00000000	      0.00000000	      0.00000000	     20.80120850	     -4.09999847	    -84.17685699	   -568.04894342	  -1060.81072975	      0.00000000	      0.00000000	      0.00000000	    780.76528210	     20.77719637	    -49.46014586	   -605.14019775	   -545.68766993	   -760.30981056	      0.00000000	      0.00000000	     -0.00000000	  -2271.39906472	      0.00000000	     -0.00000000	      0.00000000	      0.00000000	      0.00000000	      0.00000000	      0.00000000	      0.00000000	      0.00000000
      6.39000000	      0.00000000	     -0.00000000	      0.00000000	      0.00000000	      0.00000000	      0.00000000	      0.00000000	      0.00000000	      0.00000000	     22.79281235	     -6.83301640	    -63.74710846	   -573.74409527	  -1054.32067327	      0.00000000	      0.00000000	      0.00000000	    737.55432645	     24.49940836	    -47.82754731	   -588.38043213	   -547.95907214	   -761.34599911	      0.00000000	      0.00000000	     -0.00000000	  -1846.97132189	      0.00000000	     -0.00000000	      0.00000000	      0.00000000	      0.00000000	      0.00000000	      0.00000000	      0.00000000	      0.00000000
      6.40000000	      0.00000000	     -0.00000000	      0.00000000	      0.00000000	      0.00000000	      0.00000000	      0.00000000	      0.00000000	      0.00000000	     23.70018005	     -7.56095314	    -48.26667404	   -568.63204982	  -1061.17198808	      0.00000000	      0.00000000	      0.00000000	    473.51260543	     25.94689922	    -45.88212049	   -571.96990967	   -549.92032583	   -761.29891537	      0.00000000	      0.00000000	     -0.00000000	  -1832.94030601	      0.00000000	     -0.00000000	      0.00000000	      0.00000000	      0.00000000	      0.00000000	      0.00000000	      0.00000000	      0.00000000
      6.41000000	      0.00000000	     -0.00000000	      0.00000000	      0.00000000	      0.00000000	      0.00000000	      0.00000000	      0.00000000	      0.00000000	     23.49195099	     -6.32825851	    -36.84962845	   -574.43095458	  -1054.59444504	      0.00000000	      0.00000000	      0.00000000	    434.29456920	     25.20886412	    -44.63233787	   -560.85046387	   -549.92610429	   -761.48825356	      0.00000000	      0.00000000	     -0.00000000	  -1617.33068554	      0.00000000	     -0.00000000	      0.00000000	      0.00000000	      0.00000000	      0.00000000	      0.00000000	      0.00000000	      0.00000000
      6.42000000	      0.00000000	     -0.00000000	      0.00000000	      0.00000000	      0.00000000	      0.00000000	      0.00000000	      0.00000000	      0.00000000	     24.51821899	     -5.24403572	    -28.54949188	   -590.16709233	  -1060.36739890	      0.00000000	      0.00000000	      0.00000000	    135.49091352	     23.58158867	    -44.44063011	   -548.74920654	   -552.69153739	   -763.08881330	      0.00000000	      0.00000000	     -0.00000000	  -1975.84807254	      0.00000000	     -0.00000000	      0.00000000	      0.00000000	      0.00000000	      0.00000000	      0.00000000	      0.00000000	      0.00000000
